<svg viewBox="0 0 64 64" xmlns="http://www.w3.org/2000/svg" fill="none">
  <circle cx="32" cy="36" r="16" stroke="#D4AF37" stroke-width="2.5" />
  <path d="M32 20v4" stroke="#D4AF37" stroke-width="2.5" stroke-linecap="round" />
  <rect x="27" y="12" width="10" height="6" rx="1.5" stroke="#D4AF37" stroke-width="2.5" />
  <path d="M32 36l8-5" stroke="#D4AF37" stroke-width="2.5" stroke-linecap="round" />
  <circle cx="32" cy="36" r="2" fill="#D4AF37" />
  <path d="M16 34c-6 0-10-3-12-7 4 1 9 1 13-2-4 0-7-2-9-5 4 1 9 1 13-1" stroke="#D4AF37" stroke-width="2.5" stroke-linecap="round" stroke-linejoin="round"/>
  <path d="M48 34c6 0 10-3 12-7-4 1-9 1-13-2 4 0 7-2 9-5-4 1-9 1-13-1" stroke="#D4AF37" stroke-width="2.5" stroke-linecap="round" stroke-linejoin="round"/>
</svg>
